<svg id="svg" version="1.1" width="512" height="512" xmlns="http://www.w3.org/2000/svg"><path d="M261.040 32.067 C 258.394 33.267,253.331 37.427,248.591 42.295 L 240.602 50.500 234.051 50.500 C 229.421 50.500,226.775 51.013,225.027 52.250 C 223.668 53.212,221.868 54.007,221.027 54.015 C 217.536 54.048,195.045 62.380,185.636 67.126 C 156.439 81.851,126.174 107.524,115.880 126.297 C 114.021 129.688,110.253 134.496,107.508 136.981 C 94.706 148.569,77.052 166.335,70.226 174.500 C 66.088 179.450,59.876 185.975,56.421 189.000 C 39.769 203.583,19.265 235.309,11.631 258.305 C 7.762 269.956,6.641 278.071,7.326 289.458 C 8.257 304.922,11.887 317.752,20.882 337.369 C 25.203 346.791,30.879 361.025,33.496 369.000 C 42.693 397.025,52.468 415.756,71.850 442.500 C 77.889 450.832,78.690 452.576,82.647 466.000 C 84.998 473.975,89.827 487.475,93.378 496.000 C 98.517 508.337,100.259 511.565,101.917 511.820 C 104.765 512.256,104.659 509.238,101.616 503.217 C 97.075 494.230,88.243 470.457,85.994 461.167 C 84.463 454.840,82.731 450.444,80.618 447.520 C 58.497 416.908,46.686 394.795,37.610 367.000 C 34.382 357.115,28.699 342.756,24.550 334.000 C 16.877 317.807,13.802 307.823,11.925 293.000 C 9.855 276.662,13.431 261.966,25.078 238.951 C 34.122 221.079,42.939 208.821,56.061 195.874 C 61.984 190.030,69.679 181.930,73.161 177.874 C 88.110 160.461,108.099 141.500,125.000 128.699 C 129.125 125.574,135.854 120.069,139.953 116.464 C 148.794 108.689,163.230 101.000,168.987 101.000 C 178.846 101.000,189.722 111.085,192.033 122.370 C 192.724 125.742,194.819 135.250,196.689 143.500 C 204.480 177.870,204.458 176.743,197.588 190.582 C 192.927 199.971,185.599 210.252,176.589 220.043 C 167.752 229.647,160.536 240.096,154.082 252.633 C 146.506 267.350,140.129 276.768,129.287 289.251 C 119.726 300.258,116.427 302.959,107.244 307.295 C 98.680 311.340,88.583 312.010,74.479 309.471 C 67.178 308.156,64.288 308.003,62.461 308.836 C 59.687 310.100,58.244 314.385,59.916 316.398 C 62.667 319.714,82.843 322.305,88.500 320.069 C 90.609 319.235,89.730 319.021,77.500 317.385 C 74.750 317.017,70.853 316.139,68.840 315.434 C 66.828 314.729,64.843 314.456,64.430 314.826 C 64.017 315.197,64.003 314.938,64.399 314.250 C 65.362 312.576,69.217 312.675,78.602 314.616 C 90.161 317.007,100.177 316.184,108.185 312.185 C 117.690 307.440,127.102 299.993,132.401 293.025 C 135.010 289.595,137.395 286.135,137.701 285.337 C 138.146 284.177,138.484 284.277,139.379 285.833 C 139.996 286.905,142.207 290.721,144.293 294.314 C 147.630 300.061,148.741 303.887,153.540 326.173 C 156.539 340.103,160.348 355.669,162.002 360.764 C 166.948 375.990,167.574 381.758,166.120 398.700 C 164.523 417.307,162.844 425.598,159.021 433.768 C 157.360 437.319,156.000 440.636,156.000 441.138 C 156.000 442.954,161.862 438.964,165.852 434.431 C 171.441 428.082,174.122 420.551,174.744 409.455 C 175.576 394.622,173.795 385.192,164.403 354.698 C 161.483 345.217,161.483 345.228,164.132 347.595 C 168.953 351.902,180.851 370.192,184.023 378.172 C 186.328 383.969,188.757 388.029,192.015 391.530 C 194.590 394.297,197.975 398.572,199.536 401.030 C 205.732 410.788,221.792 451.417,225.918 467.772 C 227.955 475.847,231.000 499.621,231.000 507.452 L 231.000 512.000 236.128 512.000 L 241.257 512.000 240.547 498.750 C 239.671 482.401,236.995 468.005,232.357 454.680 C 230.408 449.081,228.225 442.700,227.506 440.500 C 225.957 435.764,217.391 416.726,211.835 405.674 C 207.189 396.431,201.188 389.570,195.175 386.625 C 191.211 384.684,190.641 383.915,188.587 377.736 C 186.673 371.978,186.573 371.044,187.919 371.450 C 193.890 373.251,200.419 374.044,207.254 373.797 C 215.079 373.515,215.209 373.551,218.087 376.772 C 219.689 378.565,221.000 380.465,221.000 380.995 C 221.000 381.526,219.206 382.874,217.014 383.993 C 210.299 387.419,204.017 391.684,204.693 392.359 C 206.011 393.678,210.222 392.921,214.979 390.511 C 219.514 388.212,223.000 388.016,223.000 390.060 C 223.000 390.525,222.447 392.119,221.771 393.602 L 220.543 396.299 219.871 393.900 C 219.420 392.287,219.174 393.304,219.122 397.000 C 219.010 404.869,221.004 408.790,234.375 427.000 C 239.929 434.564,257.044 451.516,271.783 464.052 C 285.661 475.856,292.305 484.556,300.679 501.889 C 304.685 510.182,305.892 511.879,307.817 511.934 C 309.753 511.989,310.030 511.629,309.499 509.750 C 308.173 505.059,302.536 495.056,294.271 482.729 C 289.562 475.704,285.991 469.676,286.335 469.331 C 286.680 468.987,290.907 467.390,295.731 465.782 C 306.561 462.172,314.847 462.233,322.284 465.979 L 327.068 468.388 322.284 469.917 C 318.754 471.045,313.737 471.393,303.145 471.244 C 290.605 471.067,288.944 471.228,290.011 472.514 C 291.956 474.856,298.750 476.233,309.000 476.362 C 319.096 476.489,321.273 475.833,326.286 471.156 C 332.207 465.631,333.592 470.671,333.869 498.750 C 333.995 511.537,334.074 512.000,336.117 512.000 L 338.234 512.000 337.566 483.750 C 336.850 453.462,336.123 444.675,332.920 427.578 C 330.741 415.946,329.087 411.631,326.416 410.606 C 325.082 410.094,324.881 410.412,325.386 412.235 C 326.793 417.315,331.000 441.355,331.001 444.317 L 331.001 447.500 326.122 447.162 C 321.228 446.822,315.000 448.986,315.000 451.026 C 315.000 452.365,317.404 452.229,324.895 450.463 C 328.412 449.634,331.440 449.107,331.624 449.291 C 331.809 449.475,332.263 453.574,332.634 458.399 L 333.308 467.171 328.404 464.179 C 322.614 460.646,314.192 458.000,308.736 458.000 C 306.591 458.000,301.610 459.105,297.668 460.456 C 286.867 464.156,281.979 465.056,279.564 463.786 C 276.901 462.386,257.116 445.936,254.500 442.946 L 252.500 440.661 254.500 441.428 C 267.243 446.313,289.921 453.413,290.603 452.731 C 292.756 450.577,283.305 445.874,269.302 442.133 C 263.361 440.545,256.731 438.981,254.568 438.656 C 251.663 438.221,249.360 436.818,245.745 433.283 C 236.507 424.249,223.959 405.834,224.032 401.419 C 224.049 400.364,224.724 398.626,225.532 397.559 C 227.949 394.363,227.214 385.455,223.811 376.712 C 223.202 375.148,220.852 372.826,218.460 371.424 C 214.680 369.209,213.473 368.997,207.848 369.565 C 203.351 370.018,199.604 369.716,195.000 368.528 C 183.959 365.678,180.556 363.442,174.977 355.373 C 172.211 351.371,168.081 346.837,165.799 345.298 C 161.671 342.513,161.637 342.438,158.481 329.250 C 156.737 321.963,155.714 316.000,156.208 316.000 C 156.701 316.000,158.508 319.037,160.222 322.750 C 166.083 335.442,172.475 342.510,175.684 339.847 C 176.880 338.855,177.106 337.318,176.674 333.132 L 176.114 327.704 182.566 334.773 C 194.774 348.149,213.418 360.484,220.397 359.802 C 224.377 359.413,226.806 355.065,225.116 351.355 C 224.133 349.197,224.204 349.039,225.783 349.884 C 226.756 350.405,230.437 351.354,233.963 351.993 C 241.459 353.353,248.410 351.970,250.117 348.781 C 251.645 345.926,250.639 344.375,245.019 340.917 C 237.964 336.576,224.108 319.121,218.493 307.500 C 211.730 293.506,211.320 291.394,213.801 283.303 C 214.948 279.561,216.154 274.250,216.481 271.500 C 217.973 258.952,219.388 257.614,220.446 267.750 C 221.271 275.652,222.979 281.179,224.777 281.767 C 226.207 282.235,225.951 279.487,223.219 265.000 C 222.337 260.325,221.451 250.445,221.251 243.043 C 220.923 230.947,221.391 222.220,223.957 192.500 C 224.385 187.550,224.605 183.348,224.447 183.163 C 224.289 182.978,223.418 183.959,222.511 185.344 C 219.677 189.668,218.000 203.600,217.376 228.000 C 216.864 248.053,216.432 252.845,214.437 260.672 C 213.150 265.716,211.789 273.254,211.411 277.422 C 210.333 289.314,209.333 287.570,205.438 267.000 C 204.468 261.882,203.608 250.275,203.274 237.828 C 202.800 220.118,202.955 216.569,204.360 213.058 C 206.205 208.446,206.558 199.463,204.933 198.459 C 203.357 197.485,203.033 198.154,201.997 204.520 C 200.653 212.773,196.823 216.404,191.582 214.393 C 188.985 213.397,189.704 211.363,195.922 202.116 C 199.179 197.271,202.516 191.700,203.338 189.735 C 204.997 185.763,206.707 184.587,212.291 183.579 C 221.222 181.966,234.134 174.345,238.286 168.237 C 241.146 164.029,244.178 155.767,244.245 152.000 C 244.270 150.625,244.488 150.065,244.730 150.756 C 244.973 151.447,245.582 151.758,246.085 151.447 C 246.588 151.136,247.002 151.471,247.004 152.191 C 247.007 152.911,248.807 155.872,251.004 158.770 C 254.299 163.116,255.000 164.834,255.000 168.561 C 255.000 175.826,248.302 204.132,242.355 222.000 C 233.787 247.744,228.189 267.210,227.433 273.887 C 226.375 283.239,228.480 281.525,231.897 270.250 C 233.522 264.887,236.764 254.200,239.102 246.500 C 241.439 238.800,244.134 230.700,245.089 228.500 C 247.886 222.061,253.963 199.033,257.444 181.679 C 259.617 170.848,261.129 165.471,262.084 165.183 C 262.863 164.947,265.750 163.645,268.500 162.290 C 271.250 160.934,276.926 159.221,281.112 158.483 C 285.299 157.745,290.474 156.378,292.612 155.444 C 295.577 154.150,299.035 153.787,307.175 153.918 C 314.952 154.043,318.875 153.661,321.622 152.513 C 323.697 151.646,326.010 151.174,326.762 151.462 C 328.905 152.284,336.593 169.680,340.476 182.491 C 343.270 191.707,344.000 195.807,344.000 202.272 C 344.000 209.441,344.178 210.251,345.467 208.961 C 346.315 208.114,347.660 202.708,348.653 196.158 C 350.149 186.295,350.210 183.518,349.122 174.802 C 348.434 169.292,346.841 161.225,345.581 156.874 L 343.290 148.965 345.895 148.345 C 347.328 148.003,349.005 147.329,349.623 146.845 C 351.791 145.148,353.925 147.229,355.471 152.549 C 356.330 155.503,359.553 163.675,362.633 170.710 C 365.714 177.744,369.283 186.261,370.565 189.635 L 372.897 195.771 369.823 196.385 C 368.133 196.723,365.119 197.001,363.125 197.002 C 359.081 197.003,352.849 199.771,352.190 201.858 C 351.847 202.946,352.629 203.046,356.131 202.360 C 358.534 201.889,363.875 201.503,368.000 201.502 L 375.499 201.500 378.768 210.000 C 388.465 235.216,388.279 234.894,391.720 232.484 C 394.684 230.407,396.954 222.898,397.674 212.782 C 398.016 207.987,398.614 204.261,399.003 204.502 C 399.393 204.743,401.132 208.666,402.867 213.220 C 404.602 217.774,407.813 224.425,410.002 228.000 C 417.451 240.166,417.272 239.285,416.603 260.463 C 415.660 290.305,414.755 298.867,412.079 303.261 C 409.076 308.194,409.840 311.818,414.062 312.662 C 418.199 313.490,419.074 315.679,419.302 325.782 C 419.483 333.759,419.224 335.084,416.249 341.363 C 407.994 358.794,377.373 379.574,342.801 391.205 C 330.886 395.213,330.009 395.357,314.862 395.774 C 296.551 396.278,285.092 394.800,266.060 389.477 C 259.223 387.565,251.983 386.000,249.971 386.000 C 247.959 386.000,243.683 385.095,240.468 383.989 C 237.180 382.858,234.244 382.356,233.757 382.843 C 232.650 383.950,241.205 387.652,248.170 389.080 C 251.102 389.681,257.561 391.449,262.524 393.010 C 279.203 398.255,287.126 399.460,305.058 399.481 L 321.616 399.500 320.323 405.000 C 318.493 412.790,318.658 422.316,320.700 426.782 L 322.400 430.500 323.100 419.500 C 324.052 404.533,324.380 403.661,328.740 404.479 C 334.220 405.507,359.877 419.953,364.267 424.483 C 366.408 426.692,369.898 431.425,372.022 435.000 C 378.123 445.268,380.611 454.310,382.889 474.500 C 384.006 484.400,385.915 496.887,387.131 502.250 L 389.343 512.000 392.671 512.000 C 394.502 512.000,396.000 511.622,396.000 511.159 C 396.000 510.697,395.067 505.859,393.927 500.409 C 392.786 494.959,391.003 484.063,389.964 476.196 C 388.925 468.329,387.104 458.429,385.918 454.196 C 383.815 446.689,377.636 433.169,373.875 427.846 C 370.357 422.865,372.279 422.483,376.928 427.238 C 384.724 435.212,390.413 450.801,393.446 472.500 C 395.704 488.652,400.291 512.000,401.206 512.000 C 402.313 512.000,402.181 509.731,400.532 500.411 C 399.745 495.961,398.607 487.411,398.004 481.411 C 396.634 467.771,393.452 451.827,390.986 446.243 C 388.518 440.654,389.272 441.077,403.659 453.365 C 415.422 463.411,418.377 466.724,422.002 473.938 C 424.519 478.946,429.690 498.507,430.645 506.635 C 431.215 511.485,431.510 512.000,433.717 512.000 C 435.847 512.000,436.089 511.648,435.612 509.250 C 435.312 507.738,434.580 503.575,433.987 500.000 C 432.456 490.777,428.281 476.485,425.541 471.092 C 424.258 468.566,421.283 464.317,418.929 461.648 C 413.683 455.699,397.215 441.740,390.723 437.739 C 388.095 436.120,385.315 433.603,384.544 432.147 C 381.758 426.883,377.383 423.327,370.250 420.529 L 363.073 417.713 367.125 415.708 C 369.353 414.606,371.410 413.095,371.695 412.352 C 372.467 410.341,374.000 410.717,374.000 412.918 C 374.000 418.921,378.587 419.652,386.779 414.954 C 395.288 410.074,404.238 395.908,406.530 383.693 C 407.332 379.415,408.513 378.924,409.410 382.496 C 410.229 385.761,419.919 395.408,424.963 397.981 C 429.622 400.358,434.821 400.630,435.624 398.538 C 435.932 397.734,435.231 393.014,434.065 388.049 C 429.289 367.707,429.168 344.963,433.690 317.736 C 435.283 308.142,435.459 307.733,439.311 304.666 C 441.499 302.925,445.698 299.297,448.644 296.605 L 454.000 291.710 454.015 294.605 C 454.063 303.562,460.753 300.245,466.886 288.223 C 469.221 283.647,473.993 266.887,473.997 263.250 C 473.999 262.012,474.277 261.000,474.616 261.000 C 474.955 261.000,477.984 263.547,481.347 266.661 C 490.865 275.473,500.650 279.127,503.319 274.867 C 504.117 273.593,503.233 271.502,499.304 265.367 C 492.309 254.444,488.945 247.492,480.455 226.421 C 476.405 216.368,470.882 203.274,468.181 197.322 C 464.096 188.316,463.165 185.154,462.632 178.478 C 462.279 174.066,461.575 169.004,461.065 167.228 C 460.223 164.292,461.106 162.745,462.415 164.863 C 463.150 166.052,471.910 168.424,472.689 167.644 C 473.037 167.297,472.645 166.222,471.819 165.256 C 469.160 162.146,461.237 142.818,458.065 131.700 C 454.429 118.958,452.006 113.903,443.124 100.523 C 431.954 83.699,415.195 68.738,398.864 61.012 C 393.323 58.391,391.401 58.004,384.000 58.023 C 374.048 58.048,368.916 59.920,364.584 65.108 C 363.026 66.973,361.197 68.824,360.520 69.219 C 359.842 69.615,355.207 68.138,350.219 65.937 C 335.827 59.585,299.445 51.010,286.861 51.003 C 279.528 50.999,277.708 49.396,274.689 40.282 C 270.997 29.136,269.495 28.232,261.040 32.067 M270.316 41.448 C 271.406 44.719,273.794 49.878,275.622 52.913 L 278.946 58.430 264.223 63.501 C 256.125 66.290,244.261 71.298,237.858 74.630 L 226.216 80.687 225.576 75.860 C 224.961 71.228,226.451 58.976,227.974 56.138 C 228.458 55.235,228.929 55.894,229.368 58.090 C 230.059 61.545,233.513 66.000,235.500 66.000 C 237.226 66.000,240.434 62.059,242.825 57.000 C 247.272 47.592,261.966 34.318,266.917 35.237 C 267.697 35.382,269.226 38.176,270.316 41.448 M297.000 55.686 C 299.494 56.565,295.171 57.850,289.450 57.930 C 284.914 57.993,282.000 56.814,282.000 54.915 C 282.000 54.174,294.540 54.818,297.000 55.686 M237.176 58.988 L 235.500 62.977 234.581 59.902 C 233.883 57.569,234.004 56.611,235.081 55.929 C 238.205 53.952,238.879 54.936,237.176 58.988 M222.443 59.750 C 222.019 60.712,221.474 66.505,221.232 72.622 L 220.792 83.743 217.822 82.261 C 213.794 80.252,210.425 81.060,198.500 86.894 C 176.815 97.504,176.957 97.452,170.471 97.135 C 159.887 96.618,147.180 103.365,132.002 117.558 C 123.696 125.327,120.000 127.895,120.000 125.900 C 120.000 124.067,149.648 95.134,158.000 88.816 C 171.332 78.731,192.278 67.862,209.636 62.022 C 223.248 57.441,223.478 57.401,222.443 59.750 M320.000 61.465 C 337.101 65.116,343.353 67.458,368.935 79.800 C 396.793 93.239,420.418 118.162,444.487 159.500 C 447.689 165.000,452.012 172.425,454.093 176.000 C 456.174 179.575,458.192 183.850,458.578 185.500 C 458.964 187.150,461.755 194.125,464.780 201.000 C 467.806 207.875,473.098 220.490,476.540 229.034 C 485.211 250.556,488.175 256.551,494.503 265.371 L 499.994 273.024 496.247 271.461 C 491.117 269.320,488.369 267.426,482.687 262.111 C 476.647 256.460,475.438 254.092,474.670 246.395 C 474.335 243.038,473.548 238.988,472.920 237.395 C 471.867 234.722,471.718 234.653,470.967 236.500 C 470.521 237.600,470.398 242.100,470.696 246.500 C 471.059 251.878,470.689 257.399,469.568 263.345 C 467.904 272.168,460.845 293.555,458.982 295.418 C 456.981 297.419,458.032 287.153,460.500 280.596 C 462.992 273.976,463.771 268.000,462.142 268.000 C 461.671 268.000,459.480 271.938,457.274 276.750 C 454.932 281.858,451.307 287.674,448.562 290.724 C 440.351 299.849,424.464 309.000,416.833 309.000 C 415.103 309.000,415.106 308.782,416.909 303.750 C 425.818 278.880,428.968 265.806,431.062 245.000 C 433.387 221.912,429.075 190.420,421.697 176.595 L 419.512 172.500 419.194 175.735 C 419.019 177.514,420.224 183.814,421.872 189.735 C 423.520 195.656,425.348 203.736,425.934 207.692 C 427.373 217.403,427.348 246.667,425.899 247.562 C 425.258 247.958,425.049 249.496,425.399 251.244 C 426.423 256.365,421.662 281.527,419.877 280.424 C 419.350 280.098,419.136 279.082,419.402 278.166 C 419.668 277.250,420.423 268.748,421.080 259.274 L 422.274 242.047 410.661 218.675 C 402.876 203.009,397.540 190.746,394.477 181.486 C 389.378 166.068,383.684 153.000,382.065 153.000 C 380.291 153.000,380.799 155.240,385.840 169.658 C 391.273 185.195,395.584 199.761,394.932 200.379 C 394.694 200.604,390.941 200.025,386.592 199.092 L 378.684 197.395 369.747 175.948 C 359.985 152.523,357.000 144.170,357.000 140.280 C 357.000 137.897,357.234 137.778,360.750 138.373 C 367.650 139.540,381.714 140.289,384.343 139.629 C 390.178 138.164,389.877 131.131,383.827 127.557 L 380.738 125.732 384.379 124.481 C 386.381 123.792,388.690 122.672,389.509 121.992 C 391.816 120.078,391.310 115.157,388.459 111.769 C 386.117 108.985,386.042 108.611,387.509 106.990 C 389.002 105.340,389.797 105.956,400.301 116.907 C 406.460 123.329,412.805 130.487,414.401 132.813 C 416.913 136.476,417.138 137.341,416.084 139.271 C 415.414 140.497,413.997 143.075,412.935 145.000 C 411.858 146.951,411.002 150.429,411.002 152.857 C 411.000 156.629,410.765 157.112,409.250 156.455 C 405.957 155.026,401.229 154.807,399.032 155.983 C 391.120 160.217,395.142 175.810,404.605 177.586 C 408.750 178.363,413.575 175.657,414.919 171.801 C 415.457 170.261,416.176 169.000,416.519 169.000 C 416.861 169.000,419.366 170.876,422.085 173.169 C 426.270 176.697,427.871 177.408,432.510 177.792 C 435.673 178.055,439.258 177.722,440.989 177.005 C 445.002 175.342,447.935 177.272,451.584 183.977 C 453.091 186.745,454.502 188.832,454.719 188.614 C 455.250 188.083,443.676 164.038,441.667 161.500 C 440.186 159.627,440.123 159.836,440.684 164.765 C 441.165 169.000,440.931 170.419,439.486 172.015 C 432.570 179.658,416.088 165.556,416.022 151.941 C 415.991 145.487,417.762 143.477,423.381 143.595 C 425.878 143.647,428.614 144.265,429.461 144.967 C 432.913 147.832,430.623 144.301,424.692 137.613 C 421.222 133.701,415.783 127.252,412.605 123.282 C 404.533 113.199,384.076 94.447,373.089 87.060 C 365.927 82.244,361.195 79.972,351.910 76.889 C 340.933 73.245,327.000 70.738,327.000 72.406 C 327.000 73.536,333.712 76.019,346.229 79.522 C 358.719 83.017,366.523 86.862,377.000 94.683 C 384.322 100.149,385.709 103.264,381.642 105.117 C 378.967 106.336,377.278 105.604,365.281 98.033 C 357.760 93.287,339.244 89.178,337.572 91.884 C 336.844 93.062,340.809 94.575,350.500 96.817 C 355.951 98.078,360.571 99.980,365.000 102.788 C 368.575 105.054,374.762 108.760,378.750 111.024 C 386.340 115.333,387.880 117.924,384.066 119.965 C 379.935 122.175,373.194 121.155,365.193 117.110 C 357.644 113.292,343.516 109.150,342.276 110.391 C 341.273 111.393,345.073 113.794,350.500 115.588 C 357.404 117.870,380.478 129.766,382.646 132.161 C 384.176 133.852,384.219 134.258,382.960 135.108 C 381.090 136.370,368.440 135.390,359.963 133.326 C 356.045 132.372,347.122 131.578,337.302 131.310 L 321.104 130.867 308.948 135.439 C 290.244 142.473,282.569 144.146,265.500 144.909 C 256.576 145.307,249.580 146.088,248.229 146.836 C 245.280 148.468,244.490 147.879,244.195 143.826 C 243.520 134.544,232.095 102.275,226.481 93.791 C 225.116 91.730,224.000 89.616,224.000 89.094 C 224.000 87.333,229.014 84.184,242.287 77.608 C 259.412 69.124,276.643 63.407,291.161 61.393 C 297.398 60.528,302.688 59.636,302.917 59.410 C 303.839 58.502,309.063 59.130,320.000 61.465 M395.315 64.171 C 421.319 75.061,447.278 105.874,454.511 134.440 C 457.300 145.456,459.295 151.044,462.456 156.700 C 463.778 159.065,464.687 161.000,464.477 161.000 C 463.434 161.000,458.291 158.438,456.750 157.152 C 454.626 155.378,454.615 155.683,456.483 164.500 C 458.137 172.309,458.429 176.897,457.180 175.450 C 456.729 174.928,455.071 171.388,453.497 167.585 C 450.310 159.885,435.087 136.129,422.941 119.901 C 409.345 101.735,391.723 86.608,371.236 75.517 C 366.857 73.146,366.075 72.316,366.590 70.583 C 368.901 62.804,384.001 59.434,395.315 64.171 M213.500 66.027 C 207.950 67.148,195.670 71.669,188.500 75.230 C 179.388 79.755,160.879 90.645,157.500 93.468 L 154.500 95.975 158.717 94.543 C 161.037 93.756,171.387 89.091,181.717 84.178 C 192.048 79.264,202.300 74.685,204.500 74.001 C 210.450 72.154,218.000 67.870,218.000 66.341 C 218.000 65.603,217.887 65.049,217.750 65.110 C 217.613 65.170,215.700 65.583,213.500 66.027 M383.000 65.288 C 383.000 65.586,387.264 67.961,392.475 70.565 C 413.260 80.950,427.998 96.041,441.447 120.708 C 449.105 134.753,453.089 140.360,451.595 134.992 C 450.247 130.147,439.977 110.133,435.086 102.821 C 429.870 95.022,415.613 80.561,408.000 75.348 C 401.146 70.654,391.618 66.122,387.076 65.396 C 384.834 65.038,383.000 64.989,383.000 65.288 M218.722 88.250 C 222.653 92.523,235.347 123.697,238.487 136.789 C 240.852 146.653,240.206 153.775,236.187 162.147 C 232.545 169.734,227.664 173.555,216.383 177.650 C 208.787 180.407,206.549 180.618,207.362 178.499 C 208.384 175.837,196.543 118.855,193.906 113.742 C 191.668 109.405,187.754 104.834,183.860 102.013 L 179.926 99.164 185.641 97.502 C 188.785 96.588,195.664 93.649,200.928 90.971 C 211.700 85.492,215.631 84.891,218.722 88.250 M351.541 138.750 C 351.860 140.262,352.248 142.175,352.404 143.000 C 352.634 144.220,351.632 144.439,347.032 144.171 C 338.229 143.658,337.970 144.438,341.843 159.827 C 347.423 182.003,347.219 191.173,341.561 172.500 C 340.061 167.550,336.842 159.729,334.408 155.120 C 331.974 150.512,329.701 144.983,329.357 142.834 C 328.997 140.579,327.971 138.520,326.932 137.964 C 324.449 136.635,323.356 136.756,324.800 138.200 C 326.681 140.081,326.212 143.453,323.750 145.759 C 319.861 149.402,316.189 150.196,306.500 149.486 C 298.661 148.911,296.875 149.096,292.653 150.919 C 289.987 152.070,284.587 153.510,280.653 154.119 C 276.719 154.728,271.377 156.300,268.783 157.613 C 266.189 158.926,262.987 160.000,261.668 160.000 C 258.946 160.000,254.535 156.868,252.867 153.752 C 250.894 150.065,253.972 149.000,266.603 149.000 C 280.855 149.000,289.054 147.390,306.500 141.168 L 320.500 136.174 335.731 136.087 L 350.962 136.000 351.541 138.750 M227.543 163.624 C 224.266 166.130,218.979 169.496,215.793 171.105 C 207.860 175.109,207.832 177.602,215.750 174.925 C 222.105 172.776,229.959 167.254,233.777 162.250 C 237.352 157.564,234.702 158.148,227.543 163.624 M409.018 163.026 C 412.668 168.152,411.139 173.000,405.873 173.000 C 399.559 173.000,396.236 161.685,402.000 159.813 C 404.516 158.996,406.938 160.105,409.018 163.026 M375.200 169.200 C 373.535 170.865,373.694 177.501,375.435 178.946 C 377.369 180.552,383.059 179.883,384.296 177.905 C 385.513 175.960,384.558 171.701,382.427 169.570 C 380.563 167.706,376.882 167.518,375.200 169.200 M381.426 173.667 C 382.179 175.630,380.649 177.519,379.087 176.554 C 377.511 175.580,377.752 172.000,379.393 172.000 C 380.159 172.000,381.074 172.750,381.426 173.667 M227.419 197.132 C 227.034 197.754,227.457 198.676,228.360 199.181 C 230.824 200.561,230.533 206.048,227.959 206.721 C 225.198 207.443,226.036 209.427,229.265 209.810 C 234.293 210.408,236.728 201.992,232.872 197.345 C 231.512 195.706,228.375 195.584,227.419 197.132 M384.450 202.006 C 385.577 202.009,388.188 202.480,390.250 203.053 C 393.908 204.068,394.000 204.209,393.983 208.797 C 393.962 214.461,391.426 226.974,390.013 228.387 C 389.329 229.071,388.998 228.767,388.992 227.450 C 388.983 225.097,386.191 216.036,382.537 206.500 C 381.062 202.650,380.427 200.063,381.127 200.750 C 381.827 201.438,383.322 202.003,384.450 202.006 M275.202 210.986 C 266.575 213.029,256.786 217.423,252.774 221.052 C 247.185 226.108,249.376 226.100,260.206 221.025 C 269.881 216.491,279.155 214.036,286.691 214.015 C 289.546 214.007,292.161 213.549,292.501 212.998 C 294.045 210.501,282.782 209.190,275.202 210.986 M191.370 217.228 C 194.171 219.500,196.175 219.437,199.299 216.980 L 201.867 214.960 200.302 218.096 C 198.016 222.679,199.032 258.723,201.811 271.575 C 204.789 285.353,208.761 297.635,213.106 306.500 C 220.430 321.444,236.186 341.213,243.583 344.741 C 251.729 348.626,238.333 349.191,225.597 345.500 C 220.852 344.125,216.480 343.000,215.881 343.000 C 215.283 343.000,216.189 344.591,217.896 346.535 C 221.551 350.697,222.088 355.000,218.953 355.000 C 215.525 355.000,202.818 347.403,194.942 340.644 C 186.425 333.335,178.713 324.742,174.173 317.500 C 170.500 311.642,170.296 312.452,172.088 325.765 C 172.686 330.211,173.024 334.604,172.838 335.528 C 172.650 336.461,169.037 330.748,164.703 322.668 C 156.994 308.292,147.000 282.188,147.000 276.425 C 147.000 274.090,152.697 264.364,153.560 265.226 C 153.762 265.428,153.252 267.822,152.427 270.547 C 151.032 275.152,151.070 278.079,152.633 286.250 C 153.677 291.709,154.799 288.802,155.526 278.750 C 155.934 273.113,156.354 266.132,156.460 263.238 C 156.782 254.418,164.757 239.822,176.175 227.153 C 181.304 221.463,186.175 215.999,187.000 215.011 C 187.939 213.888,188.639 213.644,188.870 214.358 C 189.074 214.986,190.199 216.277,191.370 217.228 M360.137 234.369 C 355.906 235.900,349.000 241.628,349.000 243.605 C 349.000 244.721,350.577 244.230,355.250 241.660 C 358.688 239.770,363.300 237.688,365.500 237.035 C 372.642 234.916,372.712 234.872,370.500 233.963 C 367.689 232.807,364.061 232.949,360.137 234.369 M367.654 241.552 C 363.041 243.243,351.404 251.377,350.094 253.825 C 349.320 255.271,349.601 262.842,350.464 263.776 C 350.604 263.928,352.895 262.254,355.556 260.056 C 358.216 257.857,360.561 256.228,360.768 256.435 C 361.369 257.036,356.410 264.331,354.103 266.240 C 351.949 268.022,351.248 272.417,352.949 273.469 C 353.472 273.792,354.201 272.356,354.571 270.278 C 355.385 265.698,359.233 261.327,363.222 260.451 C 365.483 259.955,366.724 260.331,368.582 262.077 C 369.912 263.326,371.000 265.170,371.000 266.174 C 371.000 268.807,367.418 272.000,364.465 272.000 C 361.981 272.000,357.221 274.450,355.765 276.477 C 353.204 280.044,357.181 296.908,361.634 301.361 C 363.914 303.641,365.105 303.999,370.386 303.989 C 379.841 303.972,390.823 300.068,393.033 295.938 C 393.634 294.815,393.980 292.908,393.803 291.698 C 393.502 289.644,393.253 289.741,389.990 293.184 C 386.313 297.066,376.798 301.000,371.087 301.000 C 367.047 301.000,363.458 297.500,361.565 291.715 C 358.572 282.565,359.599 278.265,365.500 275.228 C 367.221 274.341,367.520 274.535,367.645 276.615 C 368.024 282.916,373.777 286.114,377.445 282.061 C 379.064 280.272,379.076 279.946,377.600 277.839 C 375.751 275.200,375.552 272.848,377.050 271.350 C 378.062 270.338,381.838 271.652,389.000 275.509 C 392.651 277.476,392.816 281.539,389.390 285.114 C 387.290 287.306,387.016 288.000,388.248 288.000 C 391.111 288.000,394.849 286.151,395.880 284.224 C 397.374 281.432,395.453 263.812,393.066 258.415 C 390.919 253.563,390.990 253.569,398.306 258.912 C 404.238 263.243,407.000 268.762,407.000 276.284 C 407.000 282.777,408.703 283.253,411.423 277.522 C 414.900 270.195,412.732 261.109,405.838 254.111 C 394.811 242.917,378.531 237.563,367.654 241.552 M267.323 248.696 C 266.125 248.929,264.607 249.768,263.950 250.560 C 262.924 251.797,264.149 252.002,272.628 252.012 C 278.057 252.018,284.861 252.652,287.747 253.421 C 293.325 254.906,295.061 254.252,292.226 251.733 C 288.735 248.630,275.778 247.050,267.323 248.696 M380.527 250.111 C 382.954 250.722,385.458 251.847,386.092 252.611 C 387.056 253.773,386.156 254.000,380.591 254.000 C 375.636 254.000,373.792 254.378,373.369 255.482 C 372.924 256.639,372.358 256.727,370.778 255.881 C 369.666 255.286,367.406 255.069,365.756 255.399 C 363.050 255.940,362.891 255.836,364.128 254.341 C 365.595 252.568,372.642 249.058,374.807 249.022 C 375.526 249.010,378.100 249.500,380.527 250.111 M262.368 258.839 C 250.299 263.010,236.580 274.293,229.951 285.500 C 220.712 301.118,220.704 308.381,229.917 314.941 L 232.748 316.957 231.777 312.403 C 231.243 309.898,231.085 306.363,231.425 304.547 C 232.189 300.476,240.979 285.660,245.247 281.250 C 250.375 275.951,251.699 277.217,247.500 283.405 C 244.493 287.836,244.407 288.388,246.934 287.035 C 251.014 284.852,253.840 285.766,255.980 289.960 C 257.091 292.138,258.000 295.513,258.000 297.460 C 258.000 304.547,264.284 307.156,269.923 302.411 C 273.578 299.336,273.778 298.251,270.770 297.820 C 269.373 297.619,268.168 296.436,267.543 294.653 C 265.695 289.378,271.442 287.842,280.334 291.232 C 284.939 292.987,287.021 302.224,283.092 303.471 C 281.274 304.048,279.488 306.822,280.368 307.702 C 280.597 307.930,282.520 307.303,284.642 306.307 C 289.202 304.167,289.788 301.782,288.025 292.533 C 285.988 281.845,282.685 272.992,279.228 268.953 L 275.900 265.066 280.200 266.410 C 282.565 267.149,285.767 268.259,287.315 268.877 C 288.863 269.495,290.776 270.000,291.565 270.000 C 293.815 270.000,293.249 266.449,290.473 263.151 C 288.511 260.818,286.403 259.797,281.026 258.574 C 272.260 256.580,268.760 256.630,262.368 258.839 M389.250 261.153 C 390.307 262.402,390.941 264.663,390.850 266.861 C 390.730 269.787,390.620 269.973,390.289 267.807 C 389.984 265.808,389.024 264.833,386.560 264.020 C 382.443 262.661,379.245 259.471,381.189 258.662 C 383.404 257.740,387.409 258.978,389.250 261.153 M273.504 268.007 C 273.847 268.561,273.311 269.265,272.313 269.571 C 269.222 270.521,258.605 276.201,256.500 278.031 C 255.400 278.988,253.525 280.065,252.333 280.426 C 250.460 280.993,250.244 280.771,250.738 278.791 C 252.323 272.451,270.832 263.684,273.504 268.007 M277.794 275.568 C 280.442 277.423,279.842 279.000,276.488 279.000 C 273.844 279.000,269.000 277.063,269.000 276.006 C 269.000 273.558,274.531 273.283,277.794 275.568 M289.019 278.250 C 289.030 278.938,289.665 281.750,290.430 284.500 L 291.821 289.500 291.911 284.832 C 291.960 282.264,291.727 279.452,291.393 278.582 C 290.672 276.702,288.992 276.467,289.019 278.250 M269.284 282.799 C 269.953 283.341,271.400 283.985,272.500 284.230 C 273.600 284.474,271.236 284.860,267.248 285.087 C 262.400 285.363,259.996 285.136,259.998 284.403 C 259.999 283.799,259.052 282.883,257.893 282.365 C 256.335 281.670,257.387 281.476,261.927 281.619 C 265.305 281.725,268.616 282.256,269.284 282.799 M133.306 295.468 C 131.763 296.826,131.037 297.951,131.694 297.968 C 132.351 297.986,134.151 296.889,135.694 295.532 C 137.237 294.174,137.963 293.049,137.306 293.032 C 136.649 293.014,134.849 294.111,133.306 295.468 M246.127 300.193 C 242.758 302.350,242.755 302.358,243.272 308.796 C 243.843 315.918,245.588 319.054,251.092 322.852 C 254.192 324.991,255.269 325.159,263.000 324.713 C 276.647 323.926,287.169 319.062,288.518 312.916 C 289.560 308.173,288.365 308.261,283.554 313.282 C 277.967 319.113,271.055 321.398,260.762 320.817 C 254.402 320.457,253.508 320.133,250.936 317.255 C 245.589 311.270,246.331 303.346,252.455 301.017 C 253.748 300.526,255.101 299.646,255.462 299.062 C 256.670 297.107,249.611 297.963,246.127 300.193 M237.161 306.547 C 235.311 310.606,235.689 318.408,237.829 320.345 C 240.319 322.599,241.714 322.447,239.634 320.148 C 238.247 318.615,238.073 317.067,238.623 311.148 C 238.988 307.217,239.070 304.000,238.804 304.000 C 238.538 304.000,237.799 305.146,237.161 306.547 M345.000 305.600 C 345.000 308.058,351.876 314.524,353.143 313.257 C 354.563 311.837,352.803 308.708,349.098 306.070 C 345.602 303.580,345.000 303.511,345.000 305.600 M428.346 322.634 C 425.847 339.523,425.831 371.398,428.317 382.928 C 429.316 387.564,430.799 392.645,431.613 394.219 L 433.093 397.081 428.297 394.646 C 423.018 391.967,413.519 382.849,410.699 377.754 C 408.971 374.631,408.939 367.564,410.627 361.750 C 410.906 360.788,410.741 360.000,410.260 360.000 C 408.988 360.000,406.166 366.850,405.081 372.574 C 403.506 380.880,397.214 397.174,393.533 402.480 C 389.751 407.932,384.835 411.780,381.090 412.221 C 379.190 412.445,378.290 411.660,376.559 408.270 L 374.398 404.039 368.481 410.020 C 365.226 413.309,362.253 416.000,361.876 416.000 C 361.498 416.000,356.432 413.247,350.619 409.883 C 344.805 406.519,337.260 402.756,333.852 401.522 L 327.656 399.279 332.556 398.544 C 357.051 394.871,402.432 369.359,414.463 352.499 C 421.742 342.298,423.359 337.884,423.435 328.000 C 423.471 323.325,423.184 318.090,422.798 316.367 C 422.144 313.446,422.347 313.136,425.798 311.780 C 427.834 310.980,429.635 310.425,429.801 310.547 C 429.966 310.669,429.311 316.108,428.346 322.634 M179.000 352.942 C 179.000 354.617,186.914 357.952,190.950 357.978 C 195.557 358.007,193.862 356.391,187.444 354.634 C 184.725 353.890,181.713 352.945,180.750 352.534 C 179.661 352.069,179.000 352.223,179.000 352.942 M312.500 363.207 C 310.850 363.783,308.038 365.346,306.250 366.678 C 303.720 368.565,303.000 369.839,303.000 372.428 C 303.000 374.258,303.608 376.260,304.351 376.876 C 308.868 380.625,328.183 378.126,331.977 373.302 C 336.905 367.037,332.153 361.949,321.500 362.083 C 318.200 362.124,314.150 362.630,312.500 363.207 M328.588 368.159 C 332.153 371.725,327.122 374.611,315.471 375.683 C 310.677 376.125,309.170 375.909,308.109 374.632 C 306.145 372.264,307.436 370.165,312.235 367.924 C 317.189 365.610,326.168 365.739,328.588 368.159 M191.673 397.720 C 191.363 398.221,192.699 402.201,194.640 406.565 C 204.514 428.763,211.455 451.542,214.426 471.500 C 215.559 479.114,217.912 505.359,217.990 511.250 C 217.996 511.663,219.125 512.000,220.500 512.000 C 223.432 512.000,223.350 512.953,221.967 494.950 C 220.774 479.424,217.745 459.683,214.963 449.299 C 209.998 430.771,193.638 394.540,191.673 397.720 M170.533 410.533 C 170.143 414.177,169.620 416.954,169.371 416.705 C 169.122 416.456,169.225 413.259,169.600 409.600 C 169.975 405.941,170.498 403.164,170.762 403.429 C 171.026 403.693,170.923 406.890,170.533 410.533 M351.842 420.881 C 353.894 422.182,350.925 432.483,344.971 444.714 C 339.800 455.338,339.149 457.445,341.250 456.758 C 345.721 455.296,354.770 437.584,355.717 428.442 C 356.247 423.317,354.647 419.977,351.679 420.015 C 350.898 420.025,350.953 420.318,351.842 420.881 M232.000 439.165 C 232.000 440.997,234.867 445.542,237.661 448.139 C 245.729 455.639,275.457 471.785,272.557 467.092 C 271.987 466.170,262.022 459.444,247.454 450.149 C 243.029 447.326,237.741 443.489,235.704 441.623 C 233.667 439.757,232.000 438.651,232.000 439.165 M198.090 501.076 C 196.940 506.067,196.000 510.567,196.000 511.076 C 196.000 512.491,200.648 512.175,200.797 510.750 C 201.944 499.778,202.123 492.000,201.231 492.000 C 200.652 492.000,199.239 496.084,198.090 501.076 M418.331 496.500 C 417.298 498.335,416.194 502.090,414.581 509.250 C 414.037 511.668,414.257 512.000,416.401 512.000 C 418.658 512.000,418.891 511.527,419.516 505.697 C 419.887 502.231,420.025 498.293,419.823 496.947 C 419.470 494.591,419.414 494.575,418.331 496.500 " stroke="none" fill="undefined" fill-rule="evenodd"/></svg>